# xmcd CD database file
#
# Track frame offsets:
#	150
#	15053
#	31016
#	45983
#	58102
#	71245
#	85791
#	101777
#	114361
#	128385
#	144171
#	160088
#	178603
#	188662
#	207347
#	226587
#	240479
#	254361
#	269505
#	279523
#	290749
#	304064
#	315520
#
# Disc length: 4384 seconds
#
# Revision: 0
# Processed by: cddbd v1.5.2PL0 Copyright (c) Steve Scherf et al.
# Submitted via: CDex 1.70beta2
#
DISCID=2c111e17
DTITLE=Jones Classic Country - Jones Classic Country CCC-625
DYEAR=0000
DGENRE=Country
TTITLE0=Merle Haggard and George Jones/Yesterday's Wine
TTITLE1=Merle Haggard and Janie Fricke/A Place To Fall Apart
TTITLE2=Cristy Lane/One Day At A Time
TTITLE3=Loretta Lynn/Out Of My Head And Back In My Bed
TTITLE4=Barbara Mandrell/'Til You're Gone
TTITLE5=Charly McClain/Radio Heart
TTITLE6=Charly McClain/Sentimental Ol' You
TTITLE7=Mel McDaniel/Big Ole Brew
TTITLE8=Ronnie Milsap/Don't You Ever Get Tired (Of Hurting Me)
TTITLE9=Ronnie Milsap/Let's Take The Long Way Around The World
TTITLE10=Ronnie Milsap/Only One Love In My Life
TTITLE11=Ronnie Milsap/Why Don't You Spend The Night
TTITLE12=Charley Pride/Somebody Loves You Honey
TTITLE13=Charley Pride/Where Do I Put Her Memory
TTITLE14=Marty Robbins/El Paso City
TTITLE15=Kenny Rogers and Dottie West/All I Ever Need Is You
TTITLE16=Kenny Rogers and Dottie West/Every Time Two Fools Collide
TTITLE17=Kenny Rogers and Dottie West/'Til I Can Make It On My Own
TTITLE18=Mel Tillis/I Ain't Never
TTITLE19=Mel Tillis/I Believe In You
TTITLE20=Mel Tillis/Memory Maker
TTITLE21=Conway Twitty/This Time I've Hurt Her More Than She Loves Me
TTITLE22=Faron Young/It's Four In The Morning
EXTD=YEAR: 0000
EXTT0=
EXTT1=
EXTT2=
EXTT3=
EXTT4=
EXTT5=
EXTT6=
EXTT7=
EXTT8=
EXTT9=
EXTT10=
EXTT11=
EXTT12=
EXTT13=
EXTT14=
EXTT15=
EXTT16=
EXTT17=
EXTT18=
EXTT19=
EXTT20=
EXTT21=
EXTT22=
PLAYORDER=
